<svg width="64" height="64" viewBox="0 0 64 64" fill="none" xmlns="http://www.w3.org/2000/svg">
<path d="M33.2599 29.894L36.4837 39.5221L26.8557 42.7423" stroke="#FFFEFA" stroke-width="2.433" stroke-miterlimit="10"/>
<path d="M34.8446 40.0709L25.2129 43.2947L21.9927 33.6631" stroke="#FFFEFA" stroke-width="2.433" stroke-miterlimit="10"/>
<path d="M31.0716 28.8L21.4399 32.0239L24.6638 41.6519" stroke="#FFFEFA" stroke-width="2.433" stroke-miterlimit="10"/>
<path d="M27.8301 43.638L23.5623 41.511L21.3793 45.8913L25.6471 48.0182L27.8301 43.638Z" fill="#FFFEFA"/>
<path fill-rule="evenodd" clip-rule="evenodd" d="M38.4422 4.3199C36.5301 3.85891 34.5336 3.61469 32.4801 3.61469C18.4823 3.61469 7.13477 14.9622 7.13477 28.96C7.13477 42.9578 18.4823 54.3053 32.4801 54.3053C46.4779 54.3053 57.8254 42.9578 57.8254 28.96C57.8254 21.0703 54.2204 14.0225 48.5678 9.37411L45.1529 16.2265C48.4218 19.4799 50.4451 23.9837 50.4451 28.96C50.4451 38.8818 42.4019 46.925 32.4801 46.925C22.5583 46.925 14.5151 38.8818 14.5151 28.96C14.5151 19.0382 22.5583 10.995 32.4801 10.995C33.3444 10.995 34.1945 11.056 35.0263 11.174L38.4422 4.3199Z" fill="#3B8DFD"/>
<path fill-rule="evenodd" clip-rule="evenodd" d="M17.3535 44.9039L28.8595 50.6381L26.1145 56.146L14.6092 50.4107L17.3535 44.9039ZM14.3237 50.9835L13.8731 51.8876L25.3785 57.6229L25.8291 56.7188L14.3237 50.9835ZM13.1369 53.3649L13.5877 52.4604L25.093 58.1957L24.6435 59.0977L13.1369 53.3649ZM12.8514 53.9377L12.3057 55.0328L23.8116 60.7669L24.3581 59.6705L12.8514 53.9377Z" fill="#3B8DFD"/>
</svg>
