<svg width="68" height="68" viewBox="0 0 68 68" fill="none" xmlns="http://www.w3.org/2000/svg">
<path d="M35.2058 31.6432L38.6183 41.8345L28.4269 45.2432" stroke="#000410" stroke-width="2.57535" stroke-miterlimit="10"/>
<path d="M36.8832 42.4155L26.688 45.828L23.2793 35.6328" stroke="#000410" stroke-width="2.57535" stroke-miterlimit="10"/>
<path d="M32.8896 30.4851L22.6944 33.8976L26.1069 44.089" stroke="#000410" stroke-width="2.57535" stroke-miterlimit="10"/>
<path d="M29.4583 46.1913L24.9408 43.9399L22.6301 48.5764L27.1477 50.8278L29.4583 46.1913Z" fill="#000410"/>
<path fill-rule="evenodd" clip-rule="evenodd" d="M40.6913 4.57265C38.6674 4.08469 36.5541 3.82617 34.3804 3.82617C19.5635 3.82617 7.55211 15.8376 7.55211 30.6545C7.55211 45.4713 19.5635 57.4828 34.3804 57.4828C49.1973 57.4828 61.2087 45.4713 61.2087 30.6545C61.2087 22.3031 57.3928 14.843 51.4094 9.9226L47.7947 17.1759C51.2548 20.6196 53.3966 25.3869 53.3966 30.6545C53.3966 41.1568 44.8827 49.6706 34.3804 49.6706C23.8781 49.6706 15.3642 41.1568 15.3642 30.6545C15.3642 20.1521 23.8781 11.6383 34.3804 11.6383C35.2953 11.6383 36.1952 11.7029 37.0756 11.8278L40.6913 4.57265Z" fill="#3B8DFD"/>
<path fill-rule="evenodd" clip-rule="evenodd" d="M18.3688 47.5313L30.548 53.601L27.6424 59.4312L15.4639 53.3602L18.3688 47.5313ZM15.1617 53.9666L14.6848 54.9236L26.8633 60.9945L27.3403 60.0375L15.1617 53.9666ZM13.9055 56.4873L14.3826 55.5299L26.5612 61.6008L26.0854 62.5556L13.9055 56.4873ZM13.6033 57.0936L13.0256 58.2528L25.2048 64.3225L25.7832 63.1619L13.6033 57.0936Z" fill="#3B8DFD"/>
</svg>
